<svg xmlns="http://www.w3.org/2000/svg" xmlns:xlink="http://www.w3.org/1999/xlink" width="222.946" height="72.873" viewBox="0 0 222.946 72.873">
  <defs>
    <clipPath id="clip-path">
      <path id="Path_142" data-name="Path 142" d="M0,0H222.946V-72.873H0Z" fill="none"/>
    </clipPath>
  </defs>
  <g id="Group_197" data-name="Group 197" transform="translate(0 72.873)">
    <g id="Group_173" data-name="Group 173" clip-path="url(#clip-path)">
      <g id="Group_169" data-name="Group 169" transform="translate(29.9 -39.871)">
        <path id="Path_138" data-name="Path 138" d="M0,0,13.318-7.66a.775.775,0,0,0,.389-.673V-23.238a.775.775,0,0,0-.37-.661L-.042-32.111a.776.776,0,0,0-.8-.007L-14.72-23.912a.775.775,0,0,0-.381.668V-8.338a.777.777,0,0,0,.4.68L-.761.007A.776.776,0,0,0,0,0Z" fill="none" stroke="#0b3c5a" stroke-linejoin="round" stroke-width="1.552"/>
      </g>
      <g id="Group_170" data-name="Group 170" transform="translate(14.484 -47.529)">
        <path id="Path_139" data-name="Path 139" d="M0,0-13.318,7.66a.775.775,0,0,0-.389.673V23.238a.775.775,0,0,0,.37.661L.042,32.111a.776.776,0,0,0,.8.007L14.72,23.912a.775.775,0,0,0,.381-.668V8.338a.777.777,0,0,0-.4-.68L.761-.007A.776.776,0,0,0,0,0Z" fill="none" stroke="#0b3c5a" stroke-linejoin="round" stroke-width="1.552"/>
      </g>
      <g id="Group_171" data-name="Group 171" transform="translate(51.825 -20.581)">
        <path id="Path_140" data-name="Path 140" d="M0,0A9.791,9.791,0,0,0,3.261-.533a9.048,9.048,0,0,0,2.714-1.5.464.464,0,0,0,.173-.346A.677.677,0,0,0,6-2.765l-1.6-2.26A.53.53,0,0,0,3.974-5.3a.716.716,0,0,0-.374.144,6.3,6.3,0,0,1-1.577.835A5.406,5.406,0,0,1,.2-4.032a4.552,4.552,0,0,1-2.369-.655A4.881,4.881,0,0,1-3.924-6.479a5.021,5.021,0,0,1-.655-2.549,5.2,5.2,0,0,1,.648-2.584,4.8,4.8,0,0,1,1.742-1.815,4.552,4.552,0,0,1,2.376-.655,5.5,5.5,0,0,1,1.829.288,6.321,6.321,0,0,1,1.584.835.672.672,0,0,0,.388.144.5.5,0,0,0,.418-.259L6-15.334a.687.687,0,0,0,.13-.36.58.58,0,0,0-.245-.447,8.918,8.918,0,0,0-2.671-1.447A9.783,9.783,0,0,0,.029-18.1,8.9,8.9,0,0,0-4.6-16.882a8.674,8.674,0,0,0-3.211,3.3A9.2,9.2,0,0,0-8.97-9.028,9.106,9.106,0,0,0-7.811-4.507,8.683,8.683,0,0,0-4.6-1.217,8.848,8.848,0,0,0,0,0M23.51-17.35,23.164-16.1a6.334,6.334,0,0,0-4.823-2,8.616,8.616,0,0,0-4.457,1.2,8.864,8.864,0,0,0-3.225,3.269A8.924,8.924,0,0,0,9.471-9.1a9.048,9.048,0,0,0,1.181,4.543,8.821,8.821,0,0,0,3.218,3.29A8.6,8.6,0,0,0,18.341-.058a6.331,6.331,0,0,0,4.794-2l.288,1.152a.644.644,0,0,0,.648.475H26.62a.509.509,0,0,0,.576-.576V-17.235a.509.509,0,0,0-.576-.576H24.158a.627.627,0,0,0-.648.461m-5.1,13.059a4.507,4.507,0,0,1-2.326-.6,4.246,4.246,0,0,1-1.612-1.692,5.109,5.109,0,0,1-.584-2.455,5.143,5.143,0,0,1,.591-2.47,4.465,4.465,0,0,1,1.627-1.735,4.387,4.387,0,0,1,2.332-.633,4.459,4.459,0,0,1,2.347.633,4.537,4.537,0,0,1,1.656,1.735,5.051,5.051,0,0,1,.6,2.47,4.926,4.926,0,0,1-.6,2.448A4.4,4.4,0,0,1,20.781-4.9a4.643,4.643,0,0,1-2.368.612M42.354-18.1a5.127,5.127,0,0,0-2.563.619,5.969,5.969,0,0,0-1.915,1.771l-.561-1.641a.629.629,0,0,0-.648-.461h-2.52a.509.509,0,0,0-.576.576V-1.008a.509.509,0,0,0,.576.576h3.268a.509.509,0,0,0,.576-.576V-9.244a5.7,5.7,0,0,1,.533-2.556,3.974,3.974,0,0,1,1.4-1.627,3.31,3.31,0,0,1,1.814-.554,4.386,4.386,0,0,1,2.073.59.6.6,0,0,0,.332.1.508.508,0,0,0,.446-.317l1.44-2.706a.728.728,0,0,0,.086-.317.549.549,0,0,0-.3-.475,6.931,6.931,0,0,0-3.456-.994m19.954.749L61.962-16.1a6.332,6.332,0,0,0-4.823-2,8.618,8.618,0,0,0-4.457,1.2,8.864,8.864,0,0,0-3.225,3.269A8.924,8.924,0,0,0,48.269-9.1,9.048,9.048,0,0,0,49.45-4.557a8.821,8.821,0,0,0,3.218,3.29A8.6,8.6,0,0,0,57.139-.058a6.334,6.334,0,0,0,4.795-2l.287,1.152a.645.645,0,0,0,.648.475h2.549a.509.509,0,0,0,.576-.576V-17.235a.509.509,0,0,0-.576-.576H62.956a.627.627,0,0,0-.648.461m-5.1,13.059a4.509,4.509,0,0,1-2.326-.6,4.253,4.253,0,0,1-1.612-1.692,5.108,5.108,0,0,1-.583-2.455,5.143,5.143,0,0,1,.59-2.47,4.472,4.472,0,0,1,1.627-1.735,4.388,4.388,0,0,1,2.333-.633,4.462,4.462,0,0,1,2.347.633,4.542,4.542,0,0,1,1.655,1.735,5.04,5.04,0,0,1,.6,2.47,4.915,4.915,0,0,1-.6,2.448A4.4,4.4,0,0,1,59.579-4.9a4.643,4.643,0,0,1-2.368.612M81.224-18.1a6.332,6.332,0,0,0-4.823,2l-.346-1.253a.628.628,0,0,0-.648-.461H72.945a.509.509,0,0,0-.576.576V4.1a.51.51,0,0,0,.576.576h3.269A.51.51,0,0,0,76.79,4.1V-1.742A6.247,6.247,0,0,0,78.755-.5a6.6,6.6,0,0,0,2.469.446,8.6,8.6,0,0,0,4.471-1.209,8.821,8.821,0,0,0,3.218-3.29A9.048,9.048,0,0,0,90.094-9.1a8.924,8.924,0,0,0-1.188-4.528A8.864,8.864,0,0,0,85.681-16.9a8.618,8.618,0,0,0-4.457-1.2M81.152-4.291A4.643,4.643,0,0,1,78.784-4.9a4.4,4.4,0,0,1-1.663-1.691,4.926,4.926,0,0,1-.605-2.448,5.051,5.051,0,0,1,.605-2.47,4.537,4.537,0,0,1,1.656-1.735,4.458,4.458,0,0,1,2.346-.633,4.388,4.388,0,0,1,2.333.633,4.472,4.472,0,0,1,1.627,1.735,5.143,5.143,0,0,1,.59,2.47,5.108,5.108,0,0,1-.583,2.455,4.253,4.253,0,0,1-1.612,1.692,4.509,4.509,0,0,1-2.326.6M108.2-17.35l-.346,1.253a6.332,6.332,0,0,0-4.823-2,8.618,8.618,0,0,0-4.457,1.2,8.864,8.864,0,0,0-3.225,3.269A8.924,8.924,0,0,0,94.165-9.1a9.048,9.048,0,0,0,1.181,4.543,8.821,8.821,0,0,0,3.218,3.29,8.6,8.6,0,0,0,4.471,1.209,6.331,6.331,0,0,0,4.794-2l.288,1.152a.645.645,0,0,0,.648.475h2.549a.509.509,0,0,0,.576-.576V-17.235a.509.509,0,0,0-.576-.576h-2.462a.627.627,0,0,0-.648.461m-5.1,13.059a4.509,4.509,0,0,1-2.326-.6,4.253,4.253,0,0,1-1.612-1.692,5.108,5.108,0,0,1-.583-2.455,5.143,5.143,0,0,1,.59-2.47,4.465,4.465,0,0,1,1.627-1.735,4.388,4.388,0,0,1,2.333-.633,4.458,4.458,0,0,1,2.346.633,4.537,4.537,0,0,1,1.656,1.735,5.051,5.051,0,0,1,.6,2.47,4.926,4.926,0,0,1-.6,2.448A4.4,4.4,0,0,1,105.475-4.9a4.643,4.643,0,0,1-2.368.612m18.815,3.47,3.269-5.442L128.5-.821a.754.754,0,0,0,.692.389h4a.567.567,0,0,0,.36-.1.312.312,0,0,0,.13-.259.607.607,0,0,0-.115-.331L128.042-9.33l5.169-7.79a.623.623,0,0,0,.115-.345.293.293,0,0,0-.13-.252.6.6,0,0,0-.36-.094h-4.06a.776.776,0,0,0-.4.094.779.779,0,0,0-.274.295l-2.879,4.967-2.894-4.967a.754.754,0,0,0-.692-.389H117.6a.634.634,0,0,0-.367.094.288.288,0,0,0-.137.252.674.674,0,0,0,.129.345l5.3,7.79-5.658,8.193a.629.629,0,0,0-.13.359.293.293,0,0,0,.13.252.6.6,0,0,0,.359.094h4a.773.773,0,0,0,.691-.389" fill="#0b3c5a"/>
      </g>
      <g id="Group_172" data-name="Group 172" transform="translate(204.997 -21.454)">
        <path id="Path_141" data-name="Path 141" d="M0,0V-16.461a.44.44,0,0,0-.5-.5H-3.528a.439.439,0,0,0-.5.5V0a.439.439,0,0,0,.5.5H-.5A.44.44,0,0,0,0,0M13.079,0V-13.206h4.373a.439.439,0,0,0,.5-.5v-2.758a.44.44,0,0,0-.5-.5H4.693a.44.44,0,0,0-.5.5V-13.7a.439.439,0,0,0,.5.5H9.054V0a.439.439,0,0,0,.5.5h3.031a.44.44,0,0,0,.5-.5" fill="#0b3c5a"/>
      </g>
    </g>
    <g id="Group_174" data-name="Group 174" transform="translate(22.047 -51.122)">
      <path id="Path_143" data-name="Path 143" d="M0,0,2.983.394l4.6,5.048" fill="none" stroke="#0b3c5a" stroke-width="0.974"/>
    </g>
    <g id="Group_175" data-name="Group 175" transform="translate(37.227 -58.997)">
      <path id="Path_144" data-name="Path 144" d="M0,0-2.769.2-7.845,6.034" fill="none" stroke="#0b3c5a" stroke-width="0.974"/>
    </g>
    <g id="Group_176" data-name="Group 176" transform="translate(29.502 -40.307)">
      <path id="Path_145" data-name="Path 145" d="M0,0V-24.535" fill="none" stroke="#0b3c5a" stroke-width="0.974"/>
    </g>
    <g id="Group_177" data-name="Group 177" transform="translate(21.776 -58.997)">
      <path id="Path_146" data-name="Path 146" d="M0,0,2.769.2,7.845,6.034" fill="none" stroke="#0b3c5a" stroke-width="0.974"/>
    </g>
    <g id="Group_178" data-name="Group 178" transform="translate(36.956 -51.359)">
      <path id="Path_147" data-name="Path 147" d="M0,0-2.983.394l-4.6,5.048" fill="none" stroke="#0b3c5a" stroke-width="0.974"/>
    </g>
    <g id="Group_184" data-name="Group 184" clip-path="url(#clip-path)">
      <g id="Group_179" data-name="Group 179" transform="translate(20.834 -56.66)">
        <path id="Path_148" data-name="Path 148" d="M0,0A2.5,2.5,0,0,1-2.5-2.5,2.5,2.5,0,0,1,0-5,2.5,2.5,0,0,1,2.5-2.5,2.5,2.5,0,0,1,0,0" fill="#539024"/>
      </g>
      <g id="Group_180" data-name="Group 180" transform="translate(20.729 -48.811)">
        <path id="Path_149" data-name="Path 149" d="M0,0A2.5,2.5,0,0,1-2.5-2.5,2.5,2.5,0,0,1,0-5,2.5,2.5,0,0,1,2.5-2.5,2.5,2.5,0,0,1,0,0" fill="#539024"/>
      </g>
      <g id="Group_181" data-name="Group 181" transform="translate(37.599 -48.811)">
        <path id="Path_150" data-name="Path 150" d="M0,0A2.5,2.5,0,0,1-2.5-2.5,2.5,2.5,0,0,1,0-5,2.5,2.5,0,0,1,2.5-2.5,2.5,2.5,0,0,1,0,0" fill="#539024"/>
      </g>
      <g id="Group_182" data-name="Group 182" transform="translate(37.9 -56.66)">
        <path id="Path_151" data-name="Path 151" d="M0,0A2.5,2.5,0,0,1-2.5-2.5,2.5,2.5,0,0,1,0-5,2.5,2.5,0,0,1,2.5-2.5,2.5,2.5,0,0,1,0,0" fill="#539024"/>
      </g>
      <g id="Group_183" data-name="Group 183" transform="translate(29.502 -61.792)">
        <path id="Path_152" data-name="Path 152" d="M0,0A2.5,2.5,0,0,1-2.5-2.5,2.5,2.5,0,0,1,0-5,2.5,2.5,0,0,1,2.5-2.5,2.5,2.5,0,0,1,0,0" fill="#539024"/>
      </g>
    </g>
    <g id="Group_185" data-name="Group 185" transform="translate(22.233 -36.089)">
      <path id="Path_154" data-name="Path 154" d="M0,0-2.983-.394l-4.6-5.048" fill="none" stroke="#0b3c5a" stroke-width="0.974"/>
    </g>
    <g id="Group_186" data-name="Group 186" transform="translate(7.054 -28.213)">
      <path id="Path_155" data-name="Path 155" d="M0,0,2.769-.2,7.845-6.034" fill="none" stroke="#0b3c5a" stroke-width="0.974"/>
    </g>
    <g id="Group_187" data-name="Group 187" transform="translate(14.779 -46.903)">
      <path id="Path_156" data-name="Path 156" d="M0,0V24.535" fill="none" stroke="#0b3c5a" stroke-width="0.974"/>
    </g>
    <g id="Group_188" data-name="Group 188" transform="translate(22.504 -28.213)">
      <path id="Path_157" data-name="Path 157" d="M0,0-2.769-.2-7.845-6.034" fill="none" stroke="#0b3c5a" stroke-width="0.974"/>
    </g>
    <g id="Group_189" data-name="Group 189" transform="translate(7.325 -35.852)">
      <path id="Path_158" data-name="Path 158" d="M0,0,2.983-.394l4.6-5.048" fill="none" stroke="#0b3c5a" stroke-width="0.974"/>
    </g>
    <g id="Group_196" data-name="Group 196" clip-path="url(#clip-path)">
      <g id="Group_190" data-name="Group 190" transform="translate(23.447 -30.551)">
        <path id="Path_159" data-name="Path 159" d="M0,0A2.5,2.5,0,0,1,2.5,2.5,2.5,2.5,0,0,1,0,5,2.5,2.5,0,0,1,0,0" fill="#f88f2b"/>
      </g>
      <g id="Group_191" data-name="Group 191" transform="translate(23.552 -38.4)">
        <path id="Path_160" data-name="Path 160" d="M0,0A2.5,2.5,0,0,1,2.5,2.5,2.5,2.5,0,0,1,0,5,2.5,2.5,0,0,1,0,0" fill="#f88f2b"/>
      </g>
      <g id="Group_192" data-name="Group 192" transform="translate(6.681 -38.4)">
        <path id="Path_161" data-name="Path 161" d="M0,0A2.5,2.5,0,0,1,2.5,2.5,2.5,2.5,0,0,1,0,5,2.5,2.5,0,0,1,0,0" fill="#f88f2b"/>
      </g>
      <g id="Group_193" data-name="Group 193" transform="translate(6.38 -30.551)">
        <path id="Path_162" data-name="Path 162" d="M0,0A2.5,2.5,0,0,1,2.5,2.5,2.5,2.5,0,0,1,0,5,2.5,2.5,0,0,1,0,0" fill="#f88f2b"/>
      </g>
      <g id="Group_194" data-name="Group 194" transform="translate(14.779 -25.419)">
        <path id="Path_163" data-name="Path 163" d="M0,0A2.5,2.5,0,0,1,2.5,2.5,2.5,2.5,0,0,1,0,5,2.5,2.5,0,0,1,0,0" fill="#f88f2b"/>
      </g>
      <g id="Group_195" data-name="Group 195" transform="translate(49.659 -0.951)">
        <path id="Path_164" data-name="Path 164" d="M0,0A2.437,2.437,0,0,0,.968-.18,1.476,1.476,0,0,0,1.62-.694a1.335,1.335,0,0,0,.232-.778,1.123,1.123,0,0,0-.189-.661,1.511,1.511,0,0,0-.524-.454,4.651,4.651,0,0,0-.847-.344L.2-2.958c-.211-.064-.37-.118-.475-.162a.786.786,0,0,1-.255-.157.306.306,0,0,1-.1-.232.29.29,0,0,1,.165-.268A.944.944,0,0,1,0-3.869a1.449,1.449,0,0,1,.522.1,2.048,2.048,0,0,1,.471.252.169.169,0,0,0,.1.036.135.135,0,0,0,.1-.053l.5-.534a.142.142,0,0,0,.043-.094.116.116,0,0,0-.054-.093,2.824,2.824,0,0,0-.792-.439,2.685,2.685,0,0,0-.928-.162,2.339,2.339,0,0,0-.972.182,1.366,1.366,0,0,0-.6.486,1.189,1.189,0,0,0-.2.667,1.116,1.116,0,0,0,.456.948,3.128,3.128,0,0,0,1.075.508,4.846,4.846,0,0,1,.586.19A.789.789,0,0,1,.6-1.688a.358.358,0,0,1,.084.239A.371.371,0,0,1,.5-1.123.968.968,0,0,1-.025-1a1.693,1.693,0,0,1-.623-.118,1.632,1.632,0,0,1-.541-.349.137.137,0,0,0-.1-.05.14.14,0,0,0-.1.043l-.548.494a.14.14,0,0,0-.053.1.137.137,0,0,0,.042.09A2.469,2.469,0,0,0-1.074-.2,2.835,2.835,0,0,0,0,0M6.408-.2l.334-2.827.9,2.841A.147.147,0,0,0,7.8-.077h.758A.147.147,0,0,0,8.715-.19l.9-2.841L9.936-.2a.135.135,0,0,0,.15.127h.883a.146.146,0,0,0,.107-.037.125.125,0,0,0,.028-.1l-.6-4.43a.13.13,0,0,0-.048-.091.161.161,0,0,0-.105-.032H9.31a.147.147,0,0,0-.157.113L8.174-1.579,7.191-4.654a.147.147,0,0,0-.157-.113H5.991a.161.161,0,0,0-.105.032.13.13,0,0,0-.048.091L5.243-.217a.122.122,0,0,0,.029.1.141.141,0,0,0,.107.037h.879A.134.134,0,0,0,6.408-.2M19.139-.23,17.312-4.667a.163.163,0,0,0-.167-.107h-.773a.161.161,0,0,0-.163.107L14.371-.23a.17.17,0,0,0-.01.056A.083.083,0,0,0,14.4-.1a.144.144,0,0,0,.09.025h.894a.152.152,0,0,0,.16-.11l.26-.688h1.912l.264.688a.155.155,0,0,0,.16.11h.894A.141.141,0,0,0,19.118-.1a.086.086,0,0,0,.032-.072.173.173,0,0,0-.011-.056m-3-1.556.57-1.506.049-.19.057.19.57,1.506ZM22.78-.077h.869c.095,0,.142-.044.142-.133v-1.4h.645q.124,0,.189,0l.712,1.432a.172.172,0,0,0,.167.1h1A.163.163,0,0,0,26.592-.1a.076.076,0,0,0,.034-.064.16.16,0,0,0-.022-.07L25.728-1.89a1.494,1.494,0,0,0,.572-.52,1.43,1.43,0,0,0,.2-.778,1.531,1.531,0,0,0-.221-.821,1.515,1.515,0,0,0-.616-.558,1.989,1.989,0,0,0-.908-.2H22.78c-.1,0-.142.044-.142.133V-.21c0,.089.047.133.142.133m1.873-2.46h-.862V-3.809h.873a.784.784,0,0,1,.34.072.563.563,0,0,1,.24.213.63.63,0,0,1,.089.339.634.634,0,0,1-.087.326A.636.636,0,0,1,25-2.624a.706.706,0,0,1-.351.087M32.275-.21V-3.759h1.253c.1,0,.143-.044.143-.134v-.741c0-.089-.048-.133-.143-.133H29.872c-.095,0-.143.044-.143.133v.741c0,.09.048.134.143.134h1.249V-.21c0,.089.048.133.143.133h.869c.1,0,.142-.044.142-.133m11.58,0V-3.759h1.254c.094,0,.142-.044.142-.134v-.741c0-.089-.048-.133-.142-.133H41.452c-.1,0-.143.044-.143.133v.741c0,.09.048.134.143.134H42.7V-.21c0,.089.047.133.142.133h.869c.095,0,.142-.044.142-.133m8.584,0V-.928c0-.089-.048-.134-.143-.134H49.932V-2.01h1.78c.095,0,.143-.044.143-.133V-2.8c0-.089-.048-.134-.143-.134h-1.78v-.844h2.314c.1,0,.143-.045.143-.134v-.718c0-.089-.048-.133-.143-.133H48.921c-.1,0-.143.044-.143.133V-.21c0,.089.048.133.143.133H52.3c.095,0,.143-.044.143-.133m5.916.217a2.764,2.764,0,0,0,.851-.131,2.576,2.576,0,0,0,.737-.37A.11.11,0,0,0,60-.581a.164.164,0,0,0-.039-.093l-.491-.618a.139.139,0,0,0-.11-.057.181.181,0,0,0-.093.03,1.74,1.74,0,0,1-.436.221,1.56,1.56,0,0,1-.472.066,1.4,1.4,0,0,1-.7-.185,1.421,1.421,0,0,1-.523-.5,1.318,1.318,0,0,1-.2-.706,1.322,1.322,0,0,1,.194-.7,1.4,1.4,0,0,1,.521-.5,1.423,1.423,0,0,1,.709-.184,1.515,1.515,0,0,1,.47.075,1.91,1.91,0,0,1,.431.2.181.181,0,0,0,.092.03.141.141,0,0,0,.107-.056l.5-.615a.134.134,0,0,0,.036-.086.123.123,0,0,0-.061-.1,2.526,2.526,0,0,0-.728-.36,2.8,2.8,0,0,0-.849-.127,2.715,2.715,0,0,0-1.317.322,2.446,2.446,0,0,0-.937.878,2.293,2.293,0,0,0-.342,1.224A2.3,2.3,0,0,0,56.1-1.2a2.478,2.478,0,0,0,.938.884,2.7,2.7,0,0,0,1.314.326m6.4-.217V-2h2.033V-.21c0,.089.048.133.143.133h.872c.1,0,.143-.044.143-.133V-4.634c0-.089-.048-.133-.143-.133h-.872c-.1,0-.143.044-.143.133v1.6H64.759v-1.6c0-.089-.047-.133-.142-.133h-.869c-.1,0-.142.044-.142.133V-.21c0,.089.047.133.142.133h.869c.1,0,.142-.044.142-.133M72.16.908A1.659,1.659,0,0,0,72.851-.3V-.918c0-.089-.047-.134-.142-.134h-.844c-.1,0-.143.045-.143.134V-.21c0,.089.048.133.143.133h.363v.03a.517.517,0,0,1-.11.277,1.89,1.89,0,0,1-.324.344.128.128,0,0,0-.054.094.122.122,0,0,0,.054.1l.163.144a.141.141,0,0,0,.2,0M82.815,0a2.44,2.44,0,0,0,.968-.18,1.487,1.487,0,0,0,.652-.514,1.335,1.335,0,0,0,.231-.778,1.13,1.13,0,0,0-.188-.661,1.511,1.511,0,0,0-.524-.454,4.651,4.651,0,0,0-.847-.344l-.089-.027c-.212-.064-.37-.118-.476-.162a.792.792,0,0,1-.254-.157.306.306,0,0,1-.1-.232.29.29,0,0,1,.165-.268.944.944,0,0,1,.458-.092,1.44,1.44,0,0,1,.521.1,2.055,2.055,0,0,1,.472.252.164.164,0,0,0,.1.036.135.135,0,0,0,.1-.053l.5-.534a.14.14,0,0,0,.042-.094.114.114,0,0,0-.053-.093,2.824,2.824,0,0,0-.792-.439,2.685,2.685,0,0,0-.928-.162,2.339,2.339,0,0,0-.972.182,1.366,1.366,0,0,0-.6.486,1.189,1.189,0,0,0-.2.667,1.115,1.115,0,0,0,.455.948,3.142,3.142,0,0,0,1.076.508,4.761,4.761,0,0,1,.585.19.786.786,0,0,1,.289.185.362.362,0,0,1,.083.239.37.37,0,0,1-.183.326A.968.968,0,0,1,82.79-1a1.689,1.689,0,0,1-.623-.118,1.632,1.632,0,0,1-.541-.349.138.138,0,0,0-.1-.05.14.14,0,0,0-.1.043l-.548.494a.142.142,0,0,0-.054.1.139.139,0,0,0,.043.09,2.461,2.461,0,0,0,.874.591,2.835,2.835,0,0,0,1.074.2m7.814.007a2.7,2.7,0,0,0,1.314-.326,2.478,2.478,0,0,0,.938-.884,2.3,2.3,0,0,0,.344-1.227,2.286,2.286,0,0,0-.344-1.224,2.463,2.463,0,0,0-.938-.878,2.714,2.714,0,0,0-1.314-.322,2.715,2.715,0,0,0-1.317.322,2.446,2.446,0,0,0-.937.878,2.293,2.293,0,0,0-.342,1.224A2.3,2.3,0,0,0,88.377-1.2a2.478,2.478,0,0,0,.938.884,2.689,2.689,0,0,0,1.314.326m0-1.039a1.4,1.4,0,0,1-.7-.185,1.421,1.421,0,0,1-.523-.5,1.318,1.318,0,0,1-.2-.706,1.322,1.322,0,0,1,.194-.7,1.4,1.4,0,0,1,.521-.5,1.423,1.423,0,0,1,.709-.184,1.411,1.411,0,0,1,.705.184,1.415,1.415,0,0,1,.523.5,1.315,1.315,0,0,1,.2.7,1.346,1.346,0,0,1-.194.708,1.4,1.4,0,0,1-.522.5,1.426,1.426,0,0,1-.708.183M99.212.007a2.759,2.759,0,0,0,.851-.131,2.576,2.576,0,0,0,.737-.37.112.112,0,0,0,.054-.087.159.159,0,0,0-.04-.093l-.491-.618a.139.139,0,0,0-.11-.057.181.181,0,0,0-.093.03,1.74,1.74,0,0,1-.436.221,1.56,1.56,0,0,1-.472.066,1.407,1.407,0,0,1-.7-.185,1.421,1.421,0,0,1-.523-.5,1.318,1.318,0,0,1-.2-.706,1.331,1.331,0,0,1,.194-.7,1.4,1.4,0,0,1,.522-.5,1.416,1.416,0,0,1,.708-.184,1.515,1.515,0,0,1,.47.075,1.89,1.89,0,0,1,.431.2.181.181,0,0,0,.093.03.139.139,0,0,0,.106-.056l.5-.615a.134.134,0,0,0,.036-.086.125.125,0,0,0-.06-.1,2.532,2.532,0,0,0-.729-.36,2.8,2.8,0,0,0-.849-.127,2.715,2.715,0,0,0-1.317.322,2.446,2.446,0,0,0-.937.878,2.3,2.3,0,0,0-.341,1.224A2.3,2.3,0,0,0,96.96-1.2a2.478,2.478,0,0,0,.938.884,2.7,2.7,0,0,0,1.314.326m6.4-.217V-4.634c0-.089-.047-.133-.142-.133h-.869c-.1,0-.142.044-.142.133V-.21c0,.089.047.133.142.133h.869c.1,0,.142-.044.142-.133m8.263-.02-1.826-4.437a.165.165,0,0,0-.168-.107h-.772a.161.161,0,0,0-.164.107L109.112-.23a.173.173,0,0,0-.011.056.083.083,0,0,0,.034.072.147.147,0,0,0,.091.025h.893a.153.153,0,0,0,.161-.11l.259-.688h1.912l.264.688a.155.155,0,0,0,.16.11h.894a.139.139,0,0,0,.089-.025.086.086,0,0,0,.032-.072.173.173,0,0,0-.011-.056m-3-1.556.57-1.506.05-.19.057.19.569,1.506ZM120.7-.21V-.978c0-.089-.048-.134-.142-.134h-2.026V-4.634c0-.089-.048-.133-.143-.133h-.869c-.095,0-.142.044-.142.133V-.21c0,.089.047.133.142.133h3.038c.094,0,.142-.044.142-.133m9.234,0V-4.634c0-.089-.048-.133-.143-.133h-.868c-.1,0-.143.044-.143.133V-.21c0,.089.048.133.143.133h.868c.1,0,.143-.044.143-.133m4.851.006.335-2.827.9,2.841a.147.147,0,0,0,.157.113h.758a.147.147,0,0,0,.157-.113l.9-2.841.32,2.831a.135.135,0,0,0,.15.127h.883a.142.142,0,0,0,.106-.037.122.122,0,0,0,.029-.1l-.6-4.43a.13.13,0,0,0-.048-.091.164.164,0,0,0-.1-.032h-1.044a.146.146,0,0,0-.156.113l-.979,3.075-.983-3.075a.147.147,0,0,0-.157-.113h-1.043a.16.16,0,0,0-.1.032.13.13,0,0,0-.048.091l-.6,4.427a.119.119,0,0,0,.029.1.138.138,0,0,0,.106.037h.88a.133.133,0,0,0,.149-.127m9.538-.006V-1.586h.876a2.058,2.058,0,0,0,.945-.2,1.428,1.428,0,0,0,.609-.569,1.668,1.668,0,0,0,.212-.848,1.506,1.506,0,0,0-.219-.806,1.493,1.493,0,0,0-.623-.556,2.1,2.1,0,0,0-.938-.2h-1.873c-.1,0-.143.044-.143.133V-.21c0,.089.048.133.143.133h.869c.094,0,.142-.044.142-.133m.783-2.357h-.783V-3.789h.787a.832.832,0,0,1,.359.075.6.6,0,0,1,.251.21.54.54,0,0,1,.091.309.591.591,0,0,1-.091.324.61.61,0,0,1-.252.224.812.812,0,0,1-.362.08m9.15,2.337-1.827-4.437a.163.163,0,0,0-.167-.107h-.773a.162.162,0,0,0-.164.107L149.488-.23a.173.173,0,0,0-.011.056.085.085,0,0,0,.034.072.149.149,0,0,0,.091.025h.894a.152.152,0,0,0,.16-.11l.26-.688h1.912l.263.688a.156.156,0,0,0,.161.11h.893a.139.139,0,0,0,.089-.025.084.084,0,0,0,.032-.072.17.17,0,0,0-.01-.056m-3-1.556.569-1.506.05-.19.057.19.57,1.506ZM159.8.007a2.759,2.759,0,0,0,.851-.131,2.563,2.563,0,0,0,.737-.37.112.112,0,0,0,.054-.087.164.164,0,0,0-.039-.093l-.492-.618a.137.137,0,0,0-.11-.057.181.181,0,0,0-.093.03,1.739,1.739,0,0,1-.436.221,1.56,1.56,0,0,1-.472.066,1.407,1.407,0,0,1-.7-.185,1.421,1.421,0,0,1-.523-.5,1.318,1.318,0,0,1-.2-.706,1.331,1.331,0,0,1,.194-.7,1.4,1.4,0,0,1,.522-.5,1.416,1.416,0,0,1,.708-.184,1.515,1.515,0,0,1,.47.075,1.89,1.89,0,0,1,.431.2.181.181,0,0,0,.093.03.143.143,0,0,0,.107-.056l.5-.615a.138.138,0,0,0,.035-.086.125.125,0,0,0-.06-.1,2.532,2.532,0,0,0-.729-.36,2.8,2.8,0,0,0-.849-.127,2.715,2.715,0,0,0-1.317.322,2.446,2.446,0,0,0-.937.878,2.3,2.3,0,0,0-.341,1.224,2.3,2.3,0,0,0,.343,1.227,2.478,2.478,0,0,0,.938.884A2.7,2.7,0,0,0,159.8.007M167.2-.21V-3.759h1.254c.1,0,.142-.044.142-.134v-.741c0-.089-.047-.133-.142-.133H164.8c-.1,0-.142.044-.142.133v.741c0,.09.047.134.142.134h1.25V-.21c0,.089.047.133.142.133h.869c.095,0,.142-.044.142-.133" fill="#0b3b59"/>
      </g>
    </g>
  </g>
</svg>
