<svg xmlns="http://www.w3.org/2000/svg" width="48" height="48" viewBox="0 0 48 48">
  <g id="Group_167" data-name="Group 167" transform="translate(-2106.863 -8272)">
    <circle id="Ellipse_9" data-name="Ellipse 9" cx="24" cy="24" r="24" transform="translate(2106.863 8272)" fill="#f88f2b"/>
    <path id="linkedin-in-brands-solid" d="M3.755,16.771H.277V5.574H3.755ZM2.014,4.047A2.023,2.023,0,1,1,4.028,2.014,2.031,2.031,0,0,1,2.014,4.047ZM16.768,16.771H13.3V11.321c0-1.3-.026-2.965-1.808-2.965C9.681,8.356,9.4,9.767,9.4,11.227v5.544H5.93V5.574H9.265V7.1h.049A3.654,3.654,0,0,1,12.6,5.293c3.519,0,4.167,2.317,4.167,5.327v6.151Z" transform="translate(2122.709 8287.745)" fill="#fff"/>
  </g>
</svg>
